<?xml version="1.0" encoding="UTF-8"?>
<!-- Created with Inkscape (http://www.inkscape.org/) -->
<svg width="12.656mm" height="63.186mm" version="1.1" viewBox="0 0 12.655602 63.18552" xmlns="http://www.w3.org/2000/svg" xmlns:cc="http://creativecommons.org/ns#" xmlns:dc="http://purl.org/dc/elements/1.1/" xmlns:rdf="http://www.w3.org/1999/02/22-rdf-syntax-ns#">
 <defs>
  <style>.a{clip-path:url(#b);}.b{fill:#fff;}.c{fill:none;stroke:#fff;}</style>
  <clipPath id="b">
   <rect x="1383" y="3527" width="54.16" height="242.16"/>
  </clipPath>
 </defs>
 <metadata>
  <rdf:RDF>
   <cc:Work rdf:about="">
    <dc:format>image/svg+xml</dc:format>
    <dc:type rdf:resource="http://purl.org/dc/dcmitype/StillImage"/>
    <dc:title/>
   </cc:Work>
  </rdf:RDF>
 </metadata>
 <g transform="translate(-84.386 -63.568)">
  <g fill="#f00">
   <path class="b" d="m93.124 102.33a2.9406 2.9406 0 0 1 1.614 0.42334 1.4944 1.4944 0 0 1 0.79375 1.3494 1.3174 1.3174 0 0 1 -0.10583 0.50271c-0.21167 0.71437-0.87312 1.0848-1.9579 1.0848a3.2867 3.2867 0 0 1 -1.6933 -0.42333c-0.60854-0.34396-0.92604-0.79375-0.92604-1.3758 0-0.5027 0.26458-0.89958 0.79375-1.2171a2.9898 2.9898 0 0 1 1.4817 -0.34396zm-0.05292 0.34396c-0.97896 0-1.561 0.3175-1.7992 0.97896a0.51647 0.51647 0 0 0 -0.02646 0.18521 1.2232 1.2232 0 0 0 0.37042 0.82021c0.44979 0.44979 1.1112 0.68791 2.0373 0.68791 0.07937 0 0.21167-0.0265 0.39688-0.0529a1.678 1.678 0 0 0 0.84667 -0.37042 1.1173 1.1173 0 0 0 0.3175 -0.84667 1.1573 1.1573 0 0 0 -0.74083 -1.1112 3.2279 3.2279 0 0 0 -1.4023 -0.29104z"/>
   <path class="b" d="m91.642 101.64a0.55854 0.55854 0 0 1 -0.42333 -0.15875 0.99642 0.99642 0 0 1 -0.23812 -0.39688 1.7105 1.7105 0 0 1 -0.10583 -0.52917 3.3737 3.3737 0 0 1 -0.02646 -0.5027 0.30824 0.30824 0 0 1 0.05292 -0.18521 0.20055 0.20055 0 0 1 0.10583 -0.05292 0.22357 0.22357 0 0 1 0.15875 0.05292 0.19817 0.19817 0 0 1 0.02646 0.13229v0.0794c0 0.0265 0 0.0265-0.02646 0.0529 0 0.0265 0 0.0265-0.02646 0.0529v0.29104a1.3279 1.3279 0 0 0 0.05292 0.3175 0.97896 0.97896 0 0 0 0.13229 0.29104 0.3257 0.3257 0 0 0 0.26458 0.13229 0.55139 0.55139 0 0 0 0.39688 -0.18521 2.4268 2.4268 0 0 0 0.44979 -0.52916 2.812 2.812 0 0 1 0.23812 -0.29104 3.3049 3.3049 0 0 1 0.3175 -0.23813 1.1332 1.1332 0 0 1 0.44979 -0.15875 4.0098 4.0098 0 0 1 0.60854 -0.05292 2.0638 2.0638 0 0 1 0.58208 0.07937 1.3076 1.3076 0 0 1 0.47625 0.21167 0.91202 0.91202 0 0 1 0.3175 0.3175 0.77629 0.77629 0 0 1 0.10583 0.42333 1.0769 1.0769 0 0 1 -0.3175 0.79375 1.519 1.519 0 0 1 -1.0054 0.29104 2.4688 2.4688 0 0 1 -0.84667 -0.13229 1.9722 1.9722 0 0 1 -0.52917 -0.26458 1.2266 1.2266 0 0 1 -0.26458 -0.26459 0.95488 0.95488 0 0 0 -0.10583 -0.13229 0.14182 0.14182 0 0 0 -0.10583 0.0794 1.5684 1.5684 0 0 1 -0.21167 0.21166 2.3267 2.3267 0 0 1 -0.26458 0.15875 0.32332 0.32332 0 0 1 -0.23812 0.10584zm2.6194-0.0794a1.4436 1.4436 0 0 0 0.76729 -0.15875 0.50271 0.50271 0 0 0 0.26458 -0.47625 0.5334 0.5334 0 0 0 -0.07937 -0.29104 0.79375 0.79375 0 0 0 -0.26458 -0.23813 1.7761 1.7761 0 0 0 -0.39688 -0.15875 2.9305 2.9305 0 0 0 -0.50271 -0.0529 2.9305 2.9305 0 0 0 -0.50271 0.0529c-0.13229 0.0265-0.26458 0.0794-0.37042 0.10584a0.67522 0.67522 0 0 0 -0.26458 0.18521 1.325 1.325 0 0 0 -0.18521 0.21166 0.44715 0.44715 0 0 0 -0.05292 0.13229 0.33311 0.33311 0 0 0 0.10583 0.18521 1.9521 1.9521 0 0 0 0.34396 0.21167 4.8117 4.8117 0 0 0 0.50271 0.21167 2.3154 2.3154 0 0 0 0.635 0.0794z"/>
   <path class="b" d="m93.732 97.514a2.6588 2.6588 0 0 1 1.0848 0.18521 0.8636 0.8636 0 0 1 0.60854 0.82021 0.78184 0.78184 0 0 1 -0.34396 0.635c0 0.02646 0.15875 0.05292 0.39688 0.05292a6.3235 6.3235 0 0 0 1.2171 -0.07937 1.0406 1.0406 0 0 0 0.15875 -0.05292 1.0406 1.0406 0 0 1 0.15875 -0.05292c0.07937 0 0.10583 0.05292 0.10583 0.13229a0.34184 0.34184 0 0 1 -0.05292 0.21167 0.65326 0.65326 0 0 1 -0.29104 0.10583 1.7563 1.7563 0 0 1 -0.34396 0.02646h-1.6669a5.3321 5.3321 0 0 1 -0.60854 -0.02646c-0.29104-0.02646-0.50271-0.02646-0.60854-0.02646h-0.92604c-0.29104 0-0.44979-0.07937-0.44979-0.23812 0-0.07937 0.02646-0.10583 0.07937-0.10583a3.5904 3.5904 0 0 1 0.47625 0.02646 3.5904 3.5904 0 0 0 0.47625 0.02646v-0.02646a2.3977 2.3977 0 0 0 -0.42333 -0.29104 0.51991 0.51991 0 0 1 -0.23812 -0.44979 0.70062 0.70062 0 0 1 0.39688 -0.66146 1.474 1.474 0 0 1 0.79375 -0.21167zm0.02646 0.34396a2.1212 2.1212 0 0 0 -0.60854 0.07937c-0.23812 0.07938-0.34396 0.18521-0.34396 0.34396 0 0.13229 0.10583 0.26458 0.3175 0.44979a1.4065 1.4065 0 0 0 0.58208 0.3175 3.1261 3.1261 0 0 0 0.66146 0.10583c0.21167 0.02646 0.3175 0.02646 0.29104 0.02646l0.05292-0.05292c0.02646-0.02646 0.02646-0.05292 0.05292-0.07937 0.10583-0.07938 0.21167-0.13229 0.3175-0.21167a0.37703 0.37703 0 0 0 0.15875 -0.3175c0-0.23812-0.18521-0.42333-0.58208-0.55562a4.9239 4.9239 0 0 0 -0.89959 -0.10583z"/>
   <path class="b" d="m95.558 95.159c0.05292 0 0.07937 0.05292 0.07937 0.13229a0.17621 0.17621 0 0 1 -0.13229 0.18521h-0.26458c-0.05292 0-0.07937 0-0.10583 0.02646a1.2486 1.2486 0 0 1 0.26458 0.79375 1.2062 1.2062 0 0 1 -0.15875 0.58208c-0.13229 0.21167-0.26458 0.3175-0.44979 0.3175-0.18521 0-0.34396-0.13229-0.52917-0.37042a1.1877 1.1877 0 0 1 -0.23812 -0.635v-0.66146a0.19817 0.19817 0 0 0 -0.13229 -0.02646 2.0246 2.0246 0 0 0 -0.66146 0.07937 0.47837 0.47837 0 0 0 -0.37042 0.47625 0.5633 0.5633 0 0 0 0.3175 0.44979 0.93213 0.93213 0 0 0 0.55562 0.18521h0.05292a0.056885 0.056885 0 0 1 0.05292 0.05292c0 0.05292-0.02646 0.07937-0.07937 0.13229a0.24183 0.24183 0 0 1 -0.13229 0.07937 1.3004 1.3004 0 0 1 -0.47625 -0.10583 2.0053 2.0053 0 0 1 -0.42333 -0.23812 0.56277 0.56277 0 0 1 -0.18521 -0.39688 1.1422 1.1422 0 0 1 0.23812 -0.68792 0.7702 0.7702 0 0 1 0.60854 -0.34396zm-1.0583 0.34396c-0.18521 0-0.26458 0.13229-0.26458 0.39688a1.2271 1.2271 0 0 0 0.10583 0.55562 0.46805 0.46805 0 0 0 0.42333 0.3175 0.29104 0.29104 0 0 0 0.26458 -0.15875 0.62839 0.62839 0 0 0 0.07937 -0.3175 0.80883 0.80883 0 0 0 -0.18521 -0.52917 0.42968 0.42968 0 0 0 -0.42333 -0.26458z"/>
   <path class="b" d="m92.833 92.831a0.381 0.381 0 0 1 0.05292 0.23812v0.58208a1.537 1.537 0 0 1 0.26458 0.02646h1.27c0.13229 0 0.23812-0.02646 0.34396-0.02646h0.07937a1.1459 1.1459 0 0 1 0.13229 -0.02646 1.1459 1.1459 0 0 0 0.13229 -0.02646h0.10583a0.20055 0.20055 0 0 1 0.10583 0.05292c0.02646 0.05292 0.05292 0.07937 0.05292 0.10583 0 0.07937-0.07937 0.15875-0.26458 0.21167a2.3267 2.3267 0 0 1 -0.37042 0.05292 4.9324 4.9324 0 0 1 -0.71438 0.02646h-0.71438c-0.15875 0-0.26458-0.02646-0.34396-0.02646v0.10583a0.65749 0.65749 0 0 0 0.02646 0.21167c0 0.07937 0.02646 0.15875 0.02646 0.23812a1.4917 1.4917 0 0 0 0.02646 0.18521c0.02646 0.13229-0.02646 0.21167-0.15875 0.21167-0.02646 0-0.05292-0.05292-0.07937-0.13229a2.7451 2.7451 0 0 1 -0.10584 -0.26459l-0.07937-0.39688a2.0754 2.0754 0 0 1 -0.05292 -0.37042 0.51647 0.51647 0 0 0 -0.02646 -0.18521 0.73263 0.73263 0 0 0 -0.02646 -0.23812 0.7194 0.7194 0 0 1 0 -0.23812v-0.21167c0-0.13229 0.05292-0.18521 0.13229-0.18521 0.07937-0.02646 0.13229 0.02646 0.18521 0.07937z"/>
   <path class="b" d="m94.843 92.566h-1.2435c-0.18521 0-0.37042-0.02646-0.52917-0.02646s-0.29104-0.02646-0.39688-0.02646c-0.02646 0-0.02646-0.02646-0.05292-0.05292l-0.07937-0.07937c-0.02646-0.02646-0.02646-0.07937-0.05292-0.10583a0.15875 0.15875 0 0 1 -0.02646 -0.10583 0.44715 0.44715 0 0 1 0.05292 -0.13229q0.03969-0.07937 0.07937-0.07937h0.07937a1.1459 1.1459 0 0 0 0.13229 0.02646 1.4041 1.4041 0 0 0 0.29104 0.07937c0.13229 0.02646 0.29104 0.05292 0.50271 0.07937q0.27781 0.03969 0.635 0.07937a6.4476 6.4476 0 0 0 0.71438 0.02646c0.15875 0 0.21167-0.02646 0.21167-0.10583 0-0.02646-0.02646-0.07937-0.10583-0.13229-0.07937-0.05292-0.15875-0.10583-0.26458-0.18521a4.2161 4.2161 0 0 0 -0.76729 -0.39688 7.9513 7.9513 0 0 0 -0.84667 -0.29104c-0.15875-0.05292-0.26458-0.10583-0.37042-0.13229a0.73237 0.73237 0 0 1 -0.21167 -0.13229 0.46461 0.46461 0 0 1 -0.10583 -0.13229 0.44979 0.44979 0 0 1 -0.02646 -0.18521c0-0.21167 0.02646-0.3175 0.10583-0.3175l0.05292 0.02646a5.166 5.166 0 0 0 0.60854 0.05292 3.2105 3.2105 0 0 0 0.47625 0.02646h0.84667a1.5174 1.5174 0 0 0 0.84667 -0.15875c0.02646 0.02646 0.02646 0.05292 0.05292 0.07937v0.07938a0.24024 0.24024 0 0 1 -0.07937 0.18521 0.53181 0.53181 0 0 1 -0.21167 0.10583 0.9525 0.9525 0 0 1 -0.29104 0.05292c-0.10583 0-0.21167 0.02646-0.3175 0.02646a2.5757 2.5757 0 0 1 -0.42333 -0.02646c-0.15875 0-0.3175-0.02646-0.47625-0.02646a2.2849 2.2849 0 0 0 -0.39688 -0.02646 1.4245 1.4245 0 0 1 -0.21167 -0.02646c-0.05292 0-0.05292 0.02646-0.05292 0.05292a11.969 11.969 0 0 1 1.3494 0.58208q0.51594 0.27781 0.71438 0.39688a0.93345 0.93345 0 0 1 0.29104 0.23812 0.37042 0.37042 0 0 1 0.07937 0.23812 0.43815 0.43815 0 0 1 -0.13229 0.3175 0.61145 0.61145 0 0 1 -0.44979 0.13229z"/>
   <path class="b" d="m92.833 87.91a0.381 0.381 0 0 1 0.05292 0.23812v0.58208a1.537 1.537 0 0 1 0.26458 0.02646h1.27c0.13229 0 0.23812-0.02646 0.34396-0.02646h0.07937a1.1459 1.1459 0 0 1 0.13229 -0.02646 1.1459 1.1459 0 0 0 0.13229 -0.02646h0.10583a0.20055 0.20055 0 0 1 0.10583 0.05292c0.02646 0.05292 0.05292 0.07937 0.05292 0.10583 0 0.07937-0.07937 0.15875-0.26458 0.21167a2.3267 2.3267 0 0 1 -0.37042 0.05292 6.2394 6.2394 0 0 1 -0.76729 0.02646h-0.71438c-0.15875 0-0.26458-0.02646-0.34396-0.02646v0.10583a0.65749 0.65749 0 0 0 0.02646 0.21167c0 0.07937 0.02646 0.15875 0.02646 0.23812a1.4917 1.4917 0 0 0 0.02646 0.18521c0.07937 0.18521 0.02646 0.23812-0.10583 0.23812-0.02646 0-0.05292-0.05292-0.07937-0.13229a2.7458 2.7458 0 0 1 -0.07937 -0.3175l-0.07937-0.39688a2.0754 2.0754 0 0 1 -0.05292 -0.37042 0.51647 0.51647 0 0 0 -0.02646 -0.18521 0.73263 0.73263 0 0 0 -0.02646 -0.23812 0.7194 0.7194 0 0 1 0 -0.23812v-0.21167c0-0.13229 0.05292-0.18521 0.13229-0.18521a0.55351 0.55351 0 0 1 0.15875 0.10583z"/>
   <path class="b" d="m94.711 85.74c0.18521 0 0.37042 0.13229 0.52917 0.39688a1.3787 1.3787 0 0 1 0.21167 0.66146q0 0.87312-1.1112 0.87312a3.1893 3.1893 0 0 1 -1.0583 -0.18521c-0.50271-0.15875-0.74083-0.37042-0.74083-0.60854a1.0782 1.0782 0 0 1 0.3175 -0.68792 0.90249 0.90249 0 0 1 0.635 -0.37042 0.98716 0.98716 0 0 1 0.71438 0.3175 1.016 1.016 0 0 1 0.29104 0.74083 1.0406 1.0406 0 0 1 -0.05292 0.15875 0.28522 0.28522 0 0 0 -0.05292 0.18521c0 0.05292 0.02646 0.07937 0.05292 0.07937 0.50271 0 0.76729-0.15875 0.76729-0.50271a0.85355 0.85355 0 0 0 -0.15875 -0.47625 1.166 1.166 0 0 0 -0.3175 -0.29104q-0.15875-0.11906-0.15875-0.15875c-0.05292-0.10583 0-0.13229 0.13229-0.13229zm-1.2171 0.44979a0.79957 0.79957 0 0 0 -0.42333 0.13229 0.41301 0.41301 0 0 0 -0.21167 0.34396 0.46805 0.46805 0 0 0 0.3175 0.42333 1.442 1.442 0 0 0 0.58208 0.13229 0.45164 0.45164 0 0 0 0.44979 -0.44979 0.55324 0.55324 0 0 0 -0.23812 -0.44979 0.91361 0.91361 0 0 0 -0.47625 -0.13229z"/>
   <path class="b" d="m94.605 81.692a0.57362 0.57362 0 0 1 0.37042 0.13229 0.91255 0.91255 0 0 1 0.23812 0.3175 2.3283 2.3283 0 0 1 0.13229 0.39688 1.8743 1.8743 0 0 1 0.02646 0.37042 5.2597 5.2597 0 0 1 -0.05292 0.58208 0.20055 0.20055 0 0 1 0.10583 0.05292c0.02646 0.02646 0.02646 0.05292 0.02646 0.10583a0.20214 0.20214 0 0 1 -0.05292 0.13229 0.25294 0.25294 0 0 1 -0.18521 0.05292c-0.02646 0-0.05292 0-0.05292 0.02646a1.3009e12 1.3009e12 0 0 1 -0.05292 0.10583 0.13229 0.13229 0 0 1 -0.15875 0l-0.05292-0.05292c0-0.02646-0.02646-0.02646-0.02646-0.05292a0.09234 0.09234 0 0 0 -0.05292 -0.02646h-0.44979a0.13758 0.13758 0 0 0 -0.10583 0.05292c-0.02646 0.02646 0 0.10583-0.05292 0.10583s-0.05292-0.02646-0.07937-0.05292c-0.02646-0.02646-0.05292-0.05292-0.07937-0.05292h-1.2435c-0.05292 0-0.07937-0.02646-0.13229-0.07937a0.2286 0.2286 0 0 1 -0.07937 -0.15875c0-0.07937 0-0.10583 0.02646-0.13229a0.097102 0.097102 0 0 1 0.07937 -0.02646h0.39688a0.80407 0.80407 0 0 0 -0.18521 -0.13229 0.47466 0.47466 0 0 1 -0.18521 -0.13229 1.1507 1.1507 0 0 1 -0.15875 -0.18521 0.57282 0.57282 0 0 1 -0.05292 -0.3175 0.9525 0.9525 0 0 1 0.05292 -0.29104 0.9906 0.9906 0 0 1 0.15875 -0.26458 1.4883 1.4883 0 0 1 0.29104 -0.29104 0.66146 0.66146 0 0 1 0.34396 -0.07937 0.7874 0.7874 0 0 1 0.39688 0.13229 0.87974 0.87974 0 0 1 0.3175 0.37042c0 0.02646 0.02646 0.02646 0.05292 0.02646s0.02646 0 0.02646-0.02646 0.02646-0.05292 0.02646-0.07937a0.49054 0.49054 0 0 0 0.05292 -0.18521 0.55351 0.55351 0 0 1 0.10583 -0.15875 0.46461 0.46461 0 0 1 0.13229 -0.10583c0.05292-0.02646 0.07937-0.07937 0.13229-0.07937zm0 0.42333a0.23812 0.23812 0 0 0 -0.13229 0.02646c-0.02646 0-0.07937 0.05292-0.10583 0.10583a0.49847 0.49847 0 0 0 -0.05292 0.21167c0 0.10583-0.02646 0.23812-0.02646 0.39688v0.60854c0 0.05292 0.02646 0.05292 0.05292 0.05292h0.60854a1.1057 1.1057 0 0 0 0.10583 -0.26458 1.0848 1.0848 0 0 0 0.02646 -0.29104 1.6015 1.6015 0 0 0 -0.05292 -0.39688 0.82762 0.82762 0 0 0 -0.13229 -0.26458 0.70141 0.70141 0 0 0 -0.15875 -0.13229c-0.05292-0.02646-0.07937-0.05292-0.13229-0.05292zm-1.27 0.05292a0.44397 0.44397 0 0 0 -0.37042 0.15875 0.64982 0.64982 0 0 0 -0.13229 0.39688 0.5334 0.5334 0 0 0 0.07937 0.29104 1.0104 1.0104 0 0 0 0.23812 0.23812 1.7616 1.7616 0 0 0 0.3175 0.15875l0.3175 0.07937h0.23812a0.056885 0.056885 0 0 0 0.05292 -0.05292 4.3751 4.3751 0 0 0 -0.05292 -0.71438 1.3946 1.3946 0 0 0 -0.13229 -0.39688 0.41143 0.41143 0 0 0 -0.21167 -0.15875 1.4907 1.4907 0 0 1 -0.34396 0z"/>
   <path class="b" d="m92.859 79.311 0.07937 0.07938a0.22357 0.22357 0 0 0 0.15875 0.05292 0.90487 0.90487 0 0 0 0.29104 0.02646h0.50271c0.02646 0 0.05292 0 0.05292-0.02646s0.02646-0.02646 0.02646-0.05292 0.02646-0.02646 0.02646-0.05292 0.02646-0.02646 0.05292-0.02646a0.097102 0.097102 0 0 1 0.07937 0.02646c0.02646 0.02646 0.05292 0.02646 0.05292 0.05292l0.05292 0.05292c0.02646 0.02646 0.02646 0.02646 0.05292 0.02646a1.0959 1.0959 0 0 0 0.26458 -0.02646c0.10583-0.02646 0.23812-0.02646 0.34396-0.05292s0.21167-0.02646 0.29104-0.05292a0.41725 0.41725 0 0 1 0.10583 -0.02646 0.44715 0.44715 0 0 1 0.13229 0.05292 0.10583 0.10583 0 0 1 0.05292 0.10583 0.14552 0.14552 0 0 1 -0.07937 0.13229 1.8232 1.8232 0 0 1 -0.21167 0.07937 0.99192 0.99192 0 0 1 -0.29104 0.02646c-0.10583 0-0.18521 0.02646-0.29104 0.02646-0.10583 0-0.15875 0.02646-0.21167 0.02646-0.05292 0-0.07937 0.02646-0.07937 0.05292a5.3845 5.3845 0 0 0 0.15875 0.66146c0.05292 0.13229 0.07937 0.26458 0.13229 0.37042 0.05292 0.10583 0.07937 0.15875 0.10583 0.15875h0.37042c0.05292 0 0.10583-0.02646 0.15875-0.02646a0.13758 0.13758 0 0 0 0.10583 -0.05292 0.11377 0.11377 0 0 1 0.10583 0.10583 1.1459 1.1459 0 0 0 0.02646 0.13229c0 0.02646-0.05292 0.07937-0.15875 0.10583a1.8412 1.8412 0 0 1 -0.42333 0.05292c-0.18521 0-0.37042 0.02646-0.58208 0.02646h-0.60854a6.1611 6.1611 0 0 1 -0.84667 -0.05292c-0.18521-0.02646-0.29104-0.10583-0.29104-0.23812a0.37597 0.37597 0 0 1 0.05292 -0.15875 0.14552 0.14552 0 0 1 0.13229 -0.07937 0.20002 0.20002 0 0 1 0.10583 0.02646c0.05292 0.02646 0.07937 0.02646 0.13229 0.05292 0.05292 0 0.10583 0.02646 0.18521 0.02646 0.07937 0 0.15875 0.02646 0.26458 0.02646 0.10583 0 0.21167 0.02646 0.3175 0.02646h0.44979a0.11589 0.11589 0 0 0 0.07937 -0.02646 0.26458 0.26458 0 0 0 -0.02646 -0.10583c-0.02646-0.07937-0.05292-0.13229-0.07937-0.21167-0.07937-0.29104-0.15875-0.50271-0.18521-0.66146-0.02646-0.13229-0.07937-0.21167-0.13229-0.21167h-0.29104q-1.0319 0-1.0319-0.23812a0.19817 0.19817 0 0 1 0.02646 -0.13229c0.02646-0.02646 0.02646-0.07938 0.05292-0.07938s0.05292-0.05292 0.07937-0.05292a0.09234 0.09234 0 0 0 0.05292 -0.02646c0.07937 0.02646 0.07937 0.02646 0.10583 0.07937-0.02646-0.02646 0-0.02646 0 0z"/>
   <path class="b" d="m94.843 78.914h-1.2435c-0.18521 0-0.37042-0.02646-0.52917-0.02646s-0.29104-0.02646-0.39688-0.02646c-0.02646 0-0.02646-0.02646-0.05292-0.05292l-0.07937-0.07937c-0.02646-0.02646-0.02646-0.07937-0.05292-0.10583a0.15875 0.15875 0 0 1 -0.02646 -0.10583 0.44688 0.44688 0 0 1 0.05292 -0.13229q0.03969-0.07937 0.07937-0.07937h0.07937a1.1459 1.1459 0 0 0 0.13229 0.02646 1.4041 1.4041 0 0 0 0.29104 0.07937c0.13229 0.02646 0.29104 0.05292 0.50271 0.07937q0.27781 0.03969 0.635 0.07937a6.4476 6.4476 0 0 0 0.71438 0.02646c0.15875 0 0.21167-0.02646 0.21167-0.10583 0-0.02646-0.02646-0.07937-0.10583-0.13229-0.07937-0.05292-0.15875-0.10583-0.26458-0.18521a4.2161 4.2161 0 0 0 -0.76729 -0.39688 7.951 7.951 0 0 0 -0.84667 -0.29104c-0.15875-0.05292-0.26458-0.10583-0.37042-0.13229a0.73237 0.73237 0 0 1 -0.21167 -0.13229 0.46461 0.46461 0 0 1 -0.10583 -0.13229 0.44979 0.44979 0 0 1 -0.02646 -0.18521c0-0.21167 0.02646-0.3175 0.10583-0.3175l0.05292 0.02646a5.166 5.166 0 0 0 0.60854 0.05292 3.2105 3.2105 0 0 0 0.47625 0.02646h0.84667a1.5174 1.5174 0 0 0 0.84667 -0.15875c0.02646 0.02646 0.02646 0.05292 0.05292 0.07937v0.07937a0.24024 0.24024 0 0 1 -0.07937 0.18521 0.53181 0.53181 0 0 1 -0.21167 0.10583 0.9525 0.9525 0 0 1 -0.29104 0.05292c-0.10583 0-0.21167 0.02646-0.3175 0.02646a2.5757 2.5757 0 0 1 -0.42333 -0.02646c-0.15875 0-0.3175-0.02646-0.47625-0.02646a2.2849 2.2849 0 0 0 -0.39688 -0.02646 1.4245 1.4245 0 0 1 -0.21167 -0.02646c-0.05292 0-0.05292 0.02646-0.05292 0.05292a11.969 11.969 0 0 1 1.3494 0.58208q0.51594 0.27781 0.71438 0.39688a0.93345 0.93345 0 0 1 0.29104 0.23812 0.37042 0.37042 0 0 1 0.07937 0.23812 0.43815 0.43815 0 0 1 -0.13229 0.3175 0.61145 0.61145 0 0 1 -0.44979 0.13229z"/>
   <path class="b" d="m92.647 73.358a0.097102 0.097102 0 0 1 0.07937 0.02646c0.02646 0 0.05292 0.02646 0.07937 0.05292 0.02646 0.02646 0.05292 0.02646 0.10583 0.05292a1.6862 1.6862 0 0 0 0.18521 0.05292c0.07937 0 0.23812 0.02646 0.50271 0.02646h1.1112a2.2921 2.2921 0 0 0 0.47625 -0.02646c0.10583-0.02646 0.15875-0.02646 0.18521-0.05292 0.02646-0.02646 0.05292-0.02646 0.02646-0.05292 0-0.02646 0-0.02646 0.02646-0.02646s0.05292 0.02646 0.07937 0.05292a0.097102 0.097102 0 0 1 0.02646 0.07937 0.32332 0.32332 0 0 1 -0.07937 0.23812 0.47466 0.47466 0 0 1 -0.18521 0.13229 0.77258 0.77258 0 0 1 -0.23812 0.05292h-0.23812a4.295 4.295 0 0 1 -0.55562 -0.02646 4.6919 4.6919 0 0 0 -0.58208 -0.02646c-0.02646 0-0.05292 0-0.05292 0.02646s0.02646 0.02646 0.07937 0.02646c0.05292 0 0.07937 0.02646 0.13229 0.02646 0.15875 0.05292 0.34396 0.10583 0.50271 0.15875 0.15875 0.05292 0.34396 0.13229 0.47625 0.18521a1.7743 1.7743 0 0 1 0.37042 0.23812 0.29289 0.29289 0 0 1 0.13229 0.26458 0.33549 0.33549 0 0 1 -0.02646 0.15875 0.26458 0.26458 0 0 1 -0.10583 0.13229l-0.13229 0.13229a0.57838 0.57838 0 0 0 -0.13229 0.07937c-0.13229 0.05292-0.29104 0.13229-0.52917 0.21167a4.5791 4.5791 0 0 1 -0.71438 0.21167 0.097102 0.097102 0 0 0 -0.07937 0.02646c-0.02646 0-0.05292 0.02646-0.10583 0.02646-0.02646 0-0.05292 0.02646-0.07937 0.02646-0.02646 0-0.05292-0.05292-0.05292-0.05292a0.11589 0.11589 0 0 0 0.07938 0.02646c0.05292 0 0.10583 0.02646 0.18521 0.02646h1.0848a0.89958 0.89958 0 0 0 0.26458 -0.02646c0.07937 0 0.15875-0.02646 0.21167-0.02646 0.05292-0.02646 0.07937-0.02646 0.10583-0.05292 0.02646-0.02646 0.02646-0.02646 0.05292-0.02646 0.07938 0 0.13229 0.07937 0.13229 0.26458 0 0.15875-0.23812 0.26458-0.71438 0.26458h-0.37042c-0.15875 0-0.34396-0.02646-0.52917-0.02646-0.18521 0-0.37042-0.02646-0.52917-0.02646h-0.52917c-0.13229 0-0.18521-0.13229-0.18521-0.39688a0.27331 0.27331 0 0 1 0.10583 -0.21167 0.09234 0.09234 0 0 1 0.05292 -0.02646h0.34396a6.0433 6.0433 0 0 0 1.0583 -0.29104c0.55562-0.18521 0.82021-0.3175 0.82021-0.42333 0-0.05292-0.05292-0.10583-0.13229-0.15875a1.5907 1.5907 0 0 0 -0.37042 -0.18521c-0.15875-0.05292-0.34396-0.13229-0.55562-0.18521-0.21167-0.05292-0.44979-0.13229-0.68792-0.18521a0.6731 0.6731 0 0 1 -0.18521 -0.05292c-0.07937-0.02646-0.13229-0.05292-0.21167-0.07937a0.47466 0.47466 0 0 1 -0.18521 -0.13229 0.32332 0.32332 0 0 1 -0.07938 -0.23812 0.20214 0.20214 0 0 1 0.05292 -0.13229c-0.02646-0.10583 0-0.13229 0.02646-0.13229z"/>
   <path class="b" d="m95.558 70.95c0.05292 0 0.07937 0.05292 0.07937 0.13229a0.17621 0.17621 0 0 1 -0.13229 0.18521h-0.26458c-0.05292 0-0.07937 0-0.10583 0.02646a1.2486 1.2486 0 0 1 0.26458 0.79375 1.2062 1.2062 0 0 1 -0.15875 0.58208c-0.13229 0.21167-0.26458 0.3175-0.44979 0.3175-0.18521 0-0.34396-0.13229-0.52917-0.37042a1.1877 1.1877 0 0 1 -0.23812 -0.635v-0.66146a0.19817 0.19817 0 0 0 -0.13229 -0.02646 2.0246 2.0246 0 0 0 -0.66146 0.07937 0.47837 0.47837 0 0 0 -0.37042 0.47625 0.5633 0.5633 0 0 0 0.3175 0.44979 0.93213 0.93213 0 0 0 0.55562 0.18521h0.05292a0.056885 0.056885 0 0 1 0.05292 0.05292c0 0.05292-0.02646 0.07937-0.07937 0.13229a0.24183 0.24183 0 0 1 -0.13229 0.07937 1.3004 1.3004 0 0 1 -0.47625 -0.10583 2.0053 2.0053 0 0 1 -0.42333 -0.23812 0.56277 0.56277 0 0 1 -0.18521 -0.39688 1.1422 1.1422 0 0 1 0.23812 -0.68792 0.7702 0.7702 0 0 1 0.60854 -0.34396zm-1.0583 0.34396c-0.18521 0-0.26458 0.13229-0.26458 0.39688a1.2271 1.2271 0 0 0 0.10583 0.55562 0.46805 0.46805 0 0 0 0.42333 0.3175 0.29104 0.29104 0 0 0 0.26458 -0.15875 0.62839 0.62839 0 0 0 0.07937 -0.3175 0.80883 0.80883 0 0 0 -0.18521 -0.52917 0.47122 0.47122 0 0 0 -0.42333 -0.26458z"/>
   <path class="b" d="m92.859 68.542 0.07937 0.07937c0.02646 0.02646 0.07937 0.02646 0.15875 0.02646a0.90487 0.90487 0 0 0 0.29104 0.02646h0.50271c0.02646 0 0.05292 0 0.05292-0.02646s0.02646-0.02646 0.02646-0.05292 0.02646-0.02646 0.02646-0.05292 0.02646-0.02646 0.05292-0.02646a0.097102 0.097102 0 0 1 0.07937 0.02646c0.02646 0.02646 0.05292 0.02646 0.05292 0.05292l0.05292 0.05292c0.02646 0.02646 0.02646 0.02646 0.05292 0.02646a1.0959 1.0959 0 0 0 0.26458 -0.02646c0.10583-0.02646 0.23812-0.02646 0.34396-0.05292s0.21167-0.02646 0.29104-0.05292a0.41725 0.41725 0 0 1 0.10583 -0.02646 0.44715 0.44715 0 0 1 0.13229 0.05292 0.10583 0.10583 0 0 1 0.05292 0.10583 0.14552 0.14552 0 0 1 -0.07937 0.13229 1.823 1.823 0 0 1 -0.21167 0.07937 0.99192 0.99192 0 0 1 -0.29104 0.02646c-0.10583 0-0.18521 0.02646-0.29104 0.02646-0.10583 0-0.15875 0.02646-0.21167 0.02646-0.05292 0-0.07937 0.02646-0.07937 0.05292a5.3845 5.3845 0 0 0 0.15875 0.66146c0.05292 0.13229 0.07937 0.26458 0.13229 0.37042 0.05292 0.10583 0.07937 0.15875 0.10583 0.15875h0.37042c0.05292 0 0.10583-0.02646 0.15875-0.02646a0.13758 0.13758 0 0 0 0.10583 -0.05292 0.11377 0.11377 0 0 1 0.10583 0.10583 1.1459 1.1459 0 0 0 0.02646 0.13229c0 0.02646-0.05292 0.07937-0.15875 0.10583a1.8412 1.8412 0 0 1 -0.42333 0.05292c-0.18521 0-0.37042 0.02646-0.58208 0.02646h-0.60854a6.1616 6.1616 0 0 1 -0.84667 -0.05292c-0.18521-0.02646-0.29104-0.10583-0.29104-0.23812a0.37597 0.37597 0 0 1 0.05292 -0.15875 0.14552 0.14552 0 0 1 0.13229 -0.07937 0.20002 0.20002 0 0 1 0.10583 0.02646c0.05292 0.02646 0.07937 0.02646 0.13229 0.05292 0.05292 0 0.10583 0.02646 0.18521 0.02646 0.07937 0 0.15875 0.02646 0.26458 0.02646 0.10583 0 0.21167 0.02646 0.3175 0.02646h0.44979a0.11589 0.11589 0 0 0 0.07937 -0.02646 0.26458 0.26458 0 0 0 -0.02646 -0.10583c-0.02646-0.07937-0.05292-0.13229-0.07937-0.21167-0.07937-0.29104-0.15875-0.50271-0.18521-0.66146-0.02646-0.13229-0.07937-0.21167-0.13229-0.21167h-0.29104q-1.0319 0-1.0319-0.23812a0.19817 0.19817 0 0 1 0.02646 -0.13229c0.02646-0.02646 0.02646-0.07937 0.05292-0.07937s0.05292-0.05292 0.07937-0.05292a0.09234 0.09234 0 0 0 0.05292 -0.02646c0.07937 0.05292 0.07937 0.05292 0.10583 0.10583-0.02646-0.02646 0-0.02646 0 0z"/>
   <path class="b" d="m94.843 68.145h-1.2435c-0.18521 0-0.37042-0.02646-0.52917-0.02646s-0.29104-0.02646-0.39688-0.02646c-0.02646 0-0.02646-0.02646-0.05292-0.05292l-0.07937-0.07937c-0.02646-0.02646-0.02646-0.07937-0.05292-0.10583a0.15875 0.15875 0 0 1 -0.02646 -0.10583 0.44688 0.44688 0 0 1 0.05292 -0.13229q0.03969-0.07937 0.07937-0.07937h0.07937a1.1459 1.1459 0 0 0 0.13229 0.02646 1.4041 1.4041 0 0 0 0.29104 0.07937c0.13229 0.02646 0.29104 0.05292 0.50271 0.07937q0.27781 0.03969 0.635 0.07937a6.4471 6.4471 0 0 0 0.71438 0.02646c0.15875 0 0.21167-0.02646 0.21167-0.10583 0-0.02646-0.02646-0.07937-0.10583-0.13229-0.07937-0.05292-0.15875-0.10583-0.26458-0.18521a4.2159 4.2159 0 0 0 -0.76729 -0.39688 7.9521 7.9521 0 0 0 -0.84667 -0.29104c-0.15875-0.05292-0.26458-0.10583-0.37042-0.13229a0.73237 0.73237 0 0 1 -0.21166 -0.13228 0.46461 0.46461 0 0 1 -0.10583 -0.13229 0.44979 0.44979 0 0 1 -0.026459 -0.18521c0-0.21167 0.02646-0.3175 0.10583-0.3175l0.05292 0.02646a5.1657 5.1657 0 0 0 0.60854 0.05292 3.2102 3.2102 0 0 0 0.47625 0.02646h0.84667a1.5171 1.5171 0 0 0 0.84667 -0.15875c0.02646 0.02646 0.02646 0.05292 0.05292 0.07937v0.07937a0.24024 0.24024 0 0 1 -0.07937 0.18521 0.53181 0.53181 0 0 1 -0.21167 0.10583 0.9525 0.9525 0 0 1 -0.29104 0.05292c-0.10583 0-0.21167 0.02646-0.3175 0.02646a2.5757 2.5757 0 0 1 -0.42333 -0.02646c-0.15875 0-0.3175-0.02646-0.47625-0.02646a2.2847 2.2847 0 0 0 -0.39688 -0.02646 1.4245 1.4245 0 0 1 -0.21167 -0.02646c-0.05292 0-0.05292 0.02646-0.05292 0.05292a11.969 11.969 0 0 1 1.3494 0.58208q0.51594 0.27781 0.71438 0.39688a0.93345 0.93345 0 0 1 0.29104 0.23812 0.37042 0.37042 0 0 1 0.07937 0.23812 0.43815 0.43815 0 0 1 -0.13229 0.3175 0.61145 0.61145 0 0 1 -0.44979 0.13229z"/>
   <path class="b" d="m94.711 63.568c0.18521 0 0.37042 0.13229 0.52917 0.39688a1.3787 1.3787 0 0 1 0.21167 0.66146q0 0.87312-1.1112 0.87312a3.1893 3.1893 0 0 1 -1.0583 -0.18521c-0.50271-0.15875-0.74083-0.37042-0.74083-0.60854a1.0782 1.0782 0 0 1 0.3175 -0.68792 0.90249 0.90249 0 0 1 0.635 -0.37042 0.98716 0.98716 0 0 1 0.71438 0.3175 1.016 1.016 0 0 1 0.29104 0.74083 1.0406 1.0406 0 0 1 -0.05292 0.15875 0.28522 0.28522 0 0 0 -0.05292 0.18521c0 0.05292 0.02646 0.07937 0.05292 0.07937 0.50271 0 0.76729-0.15875 0.76729-0.50271a0.85355 0.85355 0 0 0 -0.15875 -0.47625 1.166 1.166 0 0 0 -0.3175 -0.29104q-0.15875-0.11906-0.15875-0.15875c-0.05292-0.07937 0-0.13229 0.13229-0.13229zm-1.2171 0.44979a0.79957 0.79957 0 0 0 -0.42333 0.13229 0.41301 0.41301 0 0 0 -0.21167 0.34396 0.46805 0.46805 0 0 0 0.3175 0.42333 1.442 1.442 0 0 0 0.58208 0.13229 0.45164 0.45164 0 0 0 0.44979 -0.44979 0.55324 0.55324 0 0 0 -0.23812 -0.44979 0.91361 0.91361 0 0 0 -0.47625 -0.13229z"/>
  </g>
  <path class="c" d="m93.307 110.83c0.52415 15.135-8.8573 15.125-8.8573 15.125s1.7142-0.9415 2.1843-2.2208" fill="none" stroke="#f00" stroke-width=".26469"/>
  <path class="c" d="m84.512 125.97s2.0017 0.28895 2.7651 0.66755" fill="#fff" stroke="#f00" stroke-width=".26469"/>
 </g>
</svg>
