<svg xmlns="http://www.w3.org/2000/svg" xmlns:xlink="http://www.w3.org/1999/xlink" viewBox="1383 3527 54.16 242.16"><defs><style>.a{clip-path:url(#b);}.b{fill:#fff;}.c{fill:none;stroke:#fff;}</style><clipPath id="b"><rect x="1383" y="3527" width="54.16" height="242.16"/></clipPath></defs><g id="a" class="a"><g transform="translate(1373 3513)"><g transform="translate(40.75 173.45) rotate(-90)"><path class="b" d="M12.7,8.6a11.114,11.114,0,0,1-1.6,6.1,5.648,5.648,0,0,1-5.1,3,4.979,4.979,0,0,1-1.9-.4C1.4,16.5,0,14,0,9.9A12.422,12.422,0,0,1,1.6,3.5C2.9,1.2,4.6,0,6.8,0c1.9,0,3.4,1,4.6,3A11.3,11.3,0,0,1,12.7,8.6Zm-1.3-.2c0-3.7-1.2-5.9-3.7-6.8A1.952,1.952,0,0,0,7,1.5,4.623,4.623,0,0,0,3.9,2.9C2.2,4.6,1.3,7.1,1.3,10.6c0,.3.1.8.2,1.5a6.342,6.342,0,0,0,1.4,3.2,4.223,4.223,0,0,0,3.2,1.2,4.374,4.374,0,0,0,4.2-2.8A12.2,12.2,0,0,0,11.4,8.4Z"/><path class="b" d="M15.3,3a2.111,2.111,0,0,1,.6-1.6A3.766,3.766,0,0,1,17.4.5a6.465,6.465,0,0,1,2-.4A12.751,12.751,0,0,1,21.3,0a1.165,1.165,0,0,1,.7.2.758.758,0,0,1,.2.4.845.845,0,0,1-.2.6.749.749,0,0,1-.5.1h-.3c-.1,0-.1,0-.2-.1-.1,0-.1,0-.2-.1H19.7a5.019,5.019,0,0,0-1.2.2,3.7,3.7,0,0,0-1.1.5,1.231,1.231,0,0,0-.5,1,2.084,2.084,0,0,0,.7,1.5,9.172,9.172,0,0,0,2,1.7,10.628,10.628,0,0,1,1.1.9,12.491,12.491,0,0,1,.9,1.2,4.283,4.283,0,0,1,.6,1.7,15.155,15.155,0,0,1,.2,2.3,7.8,7.8,0,0,1-.3,2.2,4.942,4.942,0,0,1-.8,1.8,3.447,3.447,0,0,1-1.2,1.2,2.934,2.934,0,0,1-1.6.4,4.07,4.07,0,0,1-3-1.2,5.741,5.741,0,0,1-1.1-3.8,9.331,9.331,0,0,1,.5-3.2,7.454,7.454,0,0,1,1-2,4.636,4.636,0,0,1,1-1,3.609,3.609,0,0,0,.5-.4.536.536,0,0,0-.3-.4,5.928,5.928,0,0,1-.8-.8,8.794,8.794,0,0,1-.6-1A1.222,1.222,0,0,1,15.3,3Zm.3,9.9a5.456,5.456,0,0,0,.6,2.9,1.9,1.9,0,0,0,1.8,1,2.016,2.016,0,0,0,1.1-.3,3,3,0,0,0,.9-1,6.713,6.713,0,0,0,.6-1.5,11.076,11.076,0,0,0,.2-1.9,11.076,11.076,0,0,0-.2-1.9c-.1-.5-.3-1-.4-1.4a2.552,2.552,0,0,0-.7-1,5.008,5.008,0,0,0-.8-.7,1.69,1.69,0,0,0-.5-.2,1.259,1.259,0,0,0-.7.4,7.378,7.378,0,0,0-.8,1.3,18.186,18.186,0,0,0-.8,1.9A8.751,8.751,0,0,0,15.6,12.9Z"/><path class="b" d="M30.9,10.9a10.049,10.049,0,0,1-.7,4.1,3.264,3.264,0,0,1-3.1,2.3A2.955,2.955,0,0,1,24.7,16c-.1,0-.2.6-.2,1.5a23.9,23.9,0,0,0,.3,4.6,3.933,3.933,0,0,0,.2.6,3.933,3.933,0,0,1,.2.6c0,.3-.2.4-.5.4a1.292,1.292,0,0,1-.8-.2,2.469,2.469,0,0,1-.4-1.1,6.638,6.638,0,0,1-.1-1.3V14.8a20.153,20.153,0,0,1,.1-2.3c.1-1.1.1-1.9.1-2.3V6.7c0-1.1.3-1.7.9-1.7.3,0,.4.1.4.3a13.57,13.57,0,0,1-.1,1.8,13.57,13.57,0,0,0-.1,1.8h.1a9.062,9.062,0,0,0,1.1-1.6,1.965,1.965,0,0,1,1.7-.9,2.648,2.648,0,0,1,2.5,1.5A5.571,5.571,0,0,1,30.9,10.9Zm-1.3.1a8.017,8.017,0,0,0-.3-2.3c-.3-.9-.7-1.3-1.3-1.3-.5,0-1,.4-1.7,1.2a5.316,5.316,0,0,0-1.2,2.2,11.815,11.815,0,0,0-.4,2.5c-.1.8-.1,1.2-.1,1.1l.2.2c.1.1.2.1.3.2.3.4.5.8.8,1.2a1.425,1.425,0,0,0,1.2.6c.9,0,1.6-.7,2.1-2.2A18.61,18.61,0,0,0,29.6,11Z"/><path class="b" d="M39.8,17.8c0,.2-.2.3-.5.3a.666.666,0,0,1-.7-.5v-1c0-.2,0-.3-.1-.4a4.719,4.719,0,0,1-3,1,4.559,4.559,0,0,1-2.2-.6c-.8-.5-1.2-1-1.2-1.7s.5-1.3,1.4-2a4.489,4.489,0,0,1,2.4-.9h2.5a.749.749,0,0,0,.1-.5A7.652,7.652,0,0,0,38.2,9a1.808,1.808,0,0,0-1.8-1.4,2.129,2.129,0,0,0-1.7,1.2,3.523,3.523,0,0,0-.7,2.1v.2a.215.215,0,0,1-.2.2c-.2,0-.3-.1-.5-.3a.914.914,0,0,1-.3-.5,4.915,4.915,0,0,1,.4-1.8,7.579,7.579,0,0,1,.9-1.6,2.127,2.127,0,0,1,1.5-.7,4.317,4.317,0,0,1,2.6.9,2.911,2.911,0,0,1,1.3,2.3Zm-1.3-4c0-.7-.5-1-1.5-1a4.638,4.638,0,0,0-2.1.4,1.769,1.769,0,0,0-1.2,1.6,1.1,1.1,0,0,0,.6,1,2.375,2.375,0,0,0,1.2.3,3.057,3.057,0,0,0,2-.7A1.624,1.624,0,0,0,38.5,13.8Z"/><path class="b" d="M48.6,7.5a1.44,1.44,0,0,1-.9.2H45.5a5.809,5.809,0,0,1-.1,1v4.8c0,.5.1.9.1,1.3v.3a4.331,4.331,0,0,1,.1.5,4.331,4.331,0,0,0,.1.5v.4a.758.758,0,0,1-.2.4c-.2.1-.3.2-.4.2-.3,0-.6-.3-.8-1a8.794,8.794,0,0,1-.2-1.4A18.642,18.642,0,0,1,44,12V9.3c0-.6.1-1,.1-1.3h-.4a2.485,2.485,0,0,0-.8.1c-.3,0-.6.1-.9.1a5.638,5.638,0,0,0-.7.1c-.5.1-.8-.1-.8-.6,0-.1.2-.2.5-.3A10.375,10.375,0,0,1,42,7l1.5-.3a7.844,7.844,0,0,1,1.4-.2,1.952,1.952,0,0,0,.7-.1,2.769,2.769,0,0,0,.9-.1,2.719,2.719,0,0,1,.9,0h.8c.5,0,.7.2.7.5C49,7.1,48.8,7.3,48.6,7.5Z"/><path class="b" d="M49.6,15.1V10.4c0-.7.1-1.4.1-2s.1-1.1.1-1.5c0-.1.1-.1.2-.2l.3-.3c.1-.1.3-.1.4-.2a.6.6,0,0,1,.4-.1,1.69,1.69,0,0,1,.5.2q.3.15.3.3v.3a4.331,4.331,0,0,0-.1.5,5.307,5.307,0,0,0-.3,1.1c-.1.5-.2,1.1-.3,1.9q-.15,1.05-.3,2.4a24.369,24.369,0,0,0-.1,2.7c0,.6.1.8.4.8.1,0,.3-.1.5-.4s.4-.6.7-1A15.935,15.935,0,0,0,53.9,12,30.052,30.052,0,0,0,55,8.8c.2-.6.4-1,.5-1.4a2.768,2.768,0,0,1,.5-.8,1.756,1.756,0,0,1,.5-.4,1.7,1.7,0,0,1,.7-.1c.8,0,1.2.1,1.2.4l-.1.2A19.525,19.525,0,0,0,58.1,9a12.134,12.134,0,0,0-.1,1.8V14a5.735,5.735,0,0,0,.6,3.2c-.1.1-.2.1-.3.2H58a.908.908,0,0,1-.7-.3,2.01,2.01,0,0,1-.4-.8,3.6,3.6,0,0,1-.2-1.1c0-.4-.1-.8-.1-1.2a9.735,9.735,0,0,1,.1-1.6c0-.6.1-1.2.1-1.8a8.636,8.636,0,0,0,.1-1.5,5.384,5.384,0,0,1,.1-.8c0-.2-.1-.2-.2-.2a45.237,45.237,0,0,1-2.2,5.1q-1.05,1.95-1.5,2.7a3.528,3.528,0,0,1-.9,1.1,1.4,1.4,0,0,1-.9.3,1.656,1.656,0,0,1-1.2-.5A2.311,2.311,0,0,1,49.6,15.1Z"/><path class="b" d="M67.2,7.5a1.44,1.44,0,0,1-.9.2H64.1a5.809,5.809,0,0,1-.1,1v4.8c0,.5.1.9.1,1.3v.3a4.331,4.331,0,0,1,.1.5,4.331,4.331,0,0,0,.1.5v.4a.758.758,0,0,1-.2.4c-.2.1-.3.2-.4.2-.3,0-.6-.3-.8-1a8.794,8.794,0,0,1-.2-1.4,23.582,23.582,0,0,1-.1-2.9V9.1c0-.6.1-1,.1-1.3h-.4a2.485,2.485,0,0,0-.8.1c-.3,0-.6.1-.9.1a5.638,5.638,0,0,0-.7.1c-.7.3-.9.1-.9-.4,0-.1.2-.2.5-.3a10.378,10.378,0,0,1,1.2-.3l1.5-.3a7.844,7.844,0,0,1,1.4-.2,1.952,1.952,0,0,0,.7-.1,2.769,2.769,0,0,0,.9-.1,2.719,2.719,0,0,1,.9,0h.8c.5,0,.7.2.7.5A2.092,2.092,0,0,1,67.2,7.5Z"/><path class="b" d="M75.4,14.6c0,.7-.5,1.4-1.5,2a5.211,5.211,0,0,1-2.5.8q-3.3,0-3.3-4.2a12.054,12.054,0,0,1,.7-4c.6-1.9,1.4-2.8,2.3-2.8a4.075,4.075,0,0,1,2.6,1.2A3.411,3.411,0,0,1,75.1,10a3.731,3.731,0,0,1-1.2,2.7,3.84,3.84,0,0,1-2.8,1.1,3.933,3.933,0,0,1-.6-.2,1.078,1.078,0,0,0-.7-.2c-.2,0-.3.1-.3.2,0,1.9.6,2.9,1.9,2.9a3.226,3.226,0,0,0,1.8-.6,4.407,4.407,0,0,0,1.1-1.2q.45-.6.6-.6C75.3,13.9,75.4,14.1,75.4,14.6ZM73.7,10a3.022,3.022,0,0,0-.5-1.6,1.561,1.561,0,0,0-1.3-.8,1.769,1.769,0,0,0-1.6,1.2,5.45,5.45,0,0,0-.5,2.2,1.707,1.707,0,0,0,1.7,1.7,2.091,2.091,0,0,0,1.7-.9A3.453,3.453,0,0,0,73.7,10Z"/><path class="b" d="M90.7,14.2a2.168,2.168,0,0,1-.5,1.4,3.449,3.449,0,0,1-1.2.9,8.8,8.8,0,0,1-1.5.5,7.084,7.084,0,0,1-1.4.1,19.879,19.879,0,0,1-2.2-.2.758.758,0,0,1-.2.4c-.1.1-.2.1-.4.1a.764.764,0,0,1-.5-.2.956.956,0,0,1-.2-.7c0-.1,0-.2-.1-.2a4916959154894.589,4916959154894.589,0,0,1-.4-.2.5.5,0,0,1,0-.6l.2-.2c.1,0,.1-.1.2-.1a.349.349,0,0,0,.1-.2V13.3a.52.52,0,0,0-.2-.4c-.1-.1-.4,0-.4-.2s.1-.2.2-.3.2-.2.2-.3V7.4c0-.2.1-.3.3-.5a.864.864,0,0,1,.6-.3c.3,0,.4,0,.5.1a.367.367,0,0,1,.1.3V8.5a3.039,3.039,0,0,0,.5-.7,1.794,1.794,0,0,1,.5-.7,4.349,4.349,0,0,1,.7-.6,2.165,2.165,0,0,1,1.2-.2,3.6,3.6,0,0,1,1.1.2,3.744,3.744,0,0,1,1,.6A5.625,5.625,0,0,1,90,8.2a2.5,2.5,0,0,1,.3,1.3,2.976,2.976,0,0,1-.5,1.5,3.325,3.325,0,0,1-1.4,1.2c-.1,0-.1.1-.1.2s0,.1.1.1.2.1.3.1a1.854,1.854,0,0,0,.7.2,2.092,2.092,0,0,1,.6.4,1.756,1.756,0,0,1,.4.5C90.5,13.9,90.7,14,90.7,14.2Zm-1.6,0a.9.9,0,0,0-.1-.5c0-.1-.2-.3-.4-.4a1.884,1.884,0,0,0-.8-.2c-.4,0-.9-.1-1.5-.1H84c-.2,0-.2.1-.2.2v2.3a4.179,4.179,0,0,0,1,.4,4.1,4.1,0,0,0,1.1.1,6.053,6.053,0,0,0,1.5-.2,3.128,3.128,0,0,0,1-.5,2.651,2.651,0,0,0,.5-.6C89,14.5,89.1,14.4,89.1,14.2Zm-.2-4.8A1.678,1.678,0,0,0,88.3,8a2.456,2.456,0,0,0-1.5-.5,2.016,2.016,0,0,0-1.1.3,3.819,3.819,0,0,0-.9.9,6.658,6.658,0,0,0-.6,1.2l-.3,1.2V12a.215.215,0,0,0,.2.2,16.536,16.536,0,0,0,2.7-.2,5.271,5.271,0,0,0,1.5-.5,1.555,1.555,0,0,0,.6-.8A5.634,5.634,0,0,1,88.9,9.4Z"/><path class="b" d="M99.7,7.6l-.3.3a.845.845,0,0,0-.2.6,3.42,3.42,0,0,0-.1,1.1v1.9c0,.1,0,.2.1.2s.1.1.2.1.1.1.2.1.1.1.1.2a.367.367,0,0,1-.1.3c-.1.1-.1.2-.2.2l-.2.2c-.1.1-.1.1-.1.2a4.142,4.142,0,0,0,.1,1c.1.4.1.9.2,1.3s.1.8.2,1.1a1.577,1.577,0,0,1,.1.4,1.69,1.69,0,0,1-.2.5.4.4,0,0,1-.4.2.55.55,0,0,1-.5-.3,6.891,6.891,0,0,1-.3-.8,3.749,3.749,0,0,1-.1-1.1c0-.4-.1-.7-.1-1.1s-.1-.6-.1-.8-.1-.3-.2-.3a20.351,20.351,0,0,0-2.5.6c-.5.2-1,.3-1.4.5s-.6.3-.6.4V16c0,.2.1.4.1.6a.52.52,0,0,0,.2.4.43.43,0,0,1-.4.4,4.331,4.331,0,0,0-.5.1c-.1,0-.3-.2-.4-.6a6.959,6.959,0,0,1-.2-1.6c0-.7-.1-1.4-.1-2.2V10.8a23.286,23.286,0,0,1,.2-3.2c.1-.7.4-1.1.9-1.1a1.421,1.421,0,0,1,.6.2.55.55,0,0,1,.3.5.756.756,0,0,1-.1.4c-.1.2-.1.3-.2.5,0,.2-.1.4-.1.7s-.1.6-.1,1-.1.8-.1,1.2v1.7a.438.438,0,0,0,.1.3,1,1,0,0,0,.4-.1c.3-.1.5-.2.8-.3,1.1-.3,1.9-.6,2.5-.7.5-.1.8-.3.8-.5V10.3q0-3.9.9-3.9a.749.749,0,0,1,.5.1c.1.1.3.1.3.2s.2.2.2.3a.349.349,0,0,0,.1.2c-.1.3-.1.3-.3.4C99.8,7.5,99.8,7.6,99.7,7.6Z"/><path class="b" d="M101.2,15.1V10.4c0-.7.1-1.4.1-2s.1-1.1.1-1.5c0-.1.1-.1.2-.2l.3-.3c.1-.1.3-.1.4-.2a.6.6,0,0,1,.4-.1,1.689,1.689,0,0,1,.5.2q.3.15.3.3v.3a4.331,4.331,0,0,0-.1.5,5.307,5.307,0,0,0-.3,1.1c-.1.5-.2,1.1-.3,1.9q-.15,1.05-.3,2.4a24.369,24.369,0,0,0-.1,2.7c0,.6.1.8.4.8.1,0,.3-.1.5-.4s.4-.6.7-1a15.935,15.935,0,0,0,1.5-2.9,30.051,30.051,0,0,0,1.1-3.2c.2-.6.4-1,.5-1.4a2.768,2.768,0,0,1,.5-.8,1.756,1.756,0,0,1,.5-.4,1.7,1.7,0,0,1,.7-.1c.8,0,1.2.1,1.2.4l-.1.2a19.525,19.525,0,0,0-.2,2.3,12.134,12.134,0,0,0-.1,1.8V14a5.735,5.735,0,0,0,.6,3.2c-.1.1-.2.1-.3.2h-.3a.908.908,0,0,1-.7-.3,2.01,2.01,0,0,1-.4-.8,3.6,3.6,0,0,1-.2-1.1c0-.4-.1-.8-.1-1.2a9.735,9.735,0,0,1,.1-1.6c0-.6.1-1.2.1-1.8a8.636,8.636,0,0,0,.1-1.5,5.384,5.384,0,0,1,.1-.8c0-.2-.1-.2-.2-.2a45.238,45.238,0,0,1-2.2,5.1q-1.05,1.95-1.5,2.7a3.528,3.528,0,0,1-.9,1.1,1.4,1.4,0,0,1-.9.3,1.656,1.656,0,0,1-1.2-.5A2.311,2.311,0,0,1,101.2,15.1Z"/><path class="b" d="M122.2,6.8a.367.367,0,0,1-.1.3c0,.1-.1.2-.2.3s-.1.2-.2.4a6.373,6.373,0,0,0-.2.7c0,.3-.1.9-.1,1.9v4.2a8.663,8.663,0,0,0,.1,1.8c.1.4.1.6.2.7s.1.2.2.1c.1,0,.1,0,.1.1s-.1.2-.2.3a.367.367,0,0,1-.3.1,1.222,1.222,0,0,1-.9-.3,1.794,1.794,0,0,1-.5-.7,2.92,2.92,0,0,1-.2-.9v-.9a16.233,16.233,0,0,1,.1-2.1,17.733,17.733,0,0,0,.1-2.2c0-.1,0-.2-.1-.2s-.1.1-.1.3-.1.3-.1.5c-.2.6-.4,1.3-.6,1.9s-.5,1.3-.7,1.8a6.706,6.706,0,0,1-.9,1.4,1.107,1.107,0,0,1-1,.5,1.268,1.268,0,0,1-.6-.1,1,1,0,0,1-.5-.4l-.5-.5a2.186,2.186,0,0,0-.3-.5c-.2-.5-.5-1.1-.8-2a17.307,17.307,0,0,1-.8-2.7.367.367,0,0,0-.1-.3c0-.1-.1-.2-.1-.4,0-.1-.1-.2-.1-.3s.2-.2.2-.2a.438.438,0,0,0-.1.3c0,.2-.1.4-.1.7v4.1a3.4,3.4,0,0,0,.1,1c0,.3.1.6.1.8.1.2.1.3.2.4s.1.1.1.2c0,.3-.3.5-1,.5-.6,0-1-.9-1-2.7V13.3c0-.6.1-1.3.1-2s.1-1.4.1-2v-2c0-.5.5-.7,1.5-.7a1.033,1.033,0,0,1,.8.4.349.349,0,0,1,.1.2V8.5a22.841,22.841,0,0,0,1.1,4c.7,2.1,1.2,3.1,1.6,3.1.2,0,.4-.2.6-.5a6.012,6.012,0,0,0,.7-1.4c.2-.6.5-1.3.7-2.1s.5-1.7.7-2.6a2.544,2.544,0,0,1,.2-.7c.1-.3.2-.5.3-.8a1.794,1.794,0,0,1,.5-.7,1.222,1.222,0,0,1,.9-.3.764.764,0,0,1,.5.2C122.1,6.6,122.2,6.7,122.2,6.8Z"/><path class="b" d="M131.3,17.8c0,.2-.2.3-.5.3a.666.666,0,0,1-.7-.5v-1c0-.2,0-.3-.1-.4a4.719,4.719,0,0,1-3,1,4.559,4.559,0,0,1-2.2-.6c-.8-.5-1.2-1-1.2-1.7s.5-1.3,1.4-2a4.489,4.489,0,0,1,2.4-.9h2.5a.749.749,0,0,0,.1-.5,7.652,7.652,0,0,0-.3-2.5,1.808,1.808,0,0,0-1.8-1.4,2.129,2.129,0,0,0-1.7,1.2,3.523,3.523,0,0,0-.7,2.1v.2a.215.215,0,0,1-.2.2c-.2,0-.3-.1-.5-.3a.914.914,0,0,1-.3-.5,4.915,4.915,0,0,1,.4-1.8,7.579,7.579,0,0,1,.9-1.6,2.127,2.127,0,0,1,1.5-.7,4.317,4.317,0,0,1,2.6.9,2.911,2.911,0,0,1,1.3,2.3Zm-1.3-4c0-.7-.5-1-1.5-1a4.638,4.638,0,0,0-2.1.4,1.769,1.769,0,0,0-1.2,1.6,1.1,1.1,0,0,0,.6,1,2.375,2.375,0,0,0,1.2.3,3.057,3.057,0,0,0,2-.7A1.781,1.781,0,0,0,130,13.8Z"/><path class="b" d="M140.4,7.6l-.3.3c-.1.1-.1.3-.1.6a3.42,3.42,0,0,0-.1,1.1v1.9c0,.1,0,.2.1.2s.1.1.2.1.1.1.2.1.1.1.1.2a.367.367,0,0,1-.1.3c-.1.1-.1.2-.2.2l-.2.2c-.1.1-.1.1-.1.2a4.142,4.142,0,0,0,.1,1c.1.4.1.9.2,1.3s.1.8.2,1.1a1.577,1.577,0,0,1,.1.4,1.69,1.69,0,0,1-.2.5.4.4,0,0,1-.4.2.55.55,0,0,1-.5-.3,6.89,6.89,0,0,1-.3-.8,3.749,3.749,0,0,1-.1-1.1c0-.4-.1-.7-.1-1.1s-.1-.6-.1-.8-.1-.3-.2-.3a20.351,20.351,0,0,0-2.5.6c-.5.2-1,.3-1.4.5s-.6.3-.6.4V16c0,.2.1.4.1.6a.52.52,0,0,0,.2.4.43.43,0,0,1-.4.4,4.331,4.331,0,0,0-.5.1c-.1,0-.3-.2-.4-.6a6.959,6.959,0,0,1-.2-1.6c0-.7-.1-1.4-.1-2.2V10.8a23.288,23.288,0,0,1,.2-3.2c.1-.7.4-1.1.9-1.1a1.421,1.421,0,0,1,.6.2.55.55,0,0,1,.3.5.756.756,0,0,1-.1.4c-.1.2-.1.3-.2.5,0,.2-.1.4-.1.7s-.1.6-.1,1-.1.8-.1,1.2v1.7a.438.438,0,0,0,.1.3,1,1,0,0,0,.4-.1c.3-.1.5-.2.8-.3,1.1-.3,1.9-.6,2.5-.7.5-.1.8-.3.8-.5V10.3q0-3.9.9-3.9a.749.749,0,0,1,.5.1c.1.1.3.1.3.2s.2.2.2.3a.349.349,0,0,0,.1.2c-.2.3-.2.3-.4.4C140.5,7.5,140.5,7.6,140.4,7.6Z"/><path class="b" d="M141.9,15.1V10.4c0-.7.1-1.4.1-2s.1-1.1.1-1.5c0-.1.1-.1.2-.2l.3-.3c.1-.1.3-.1.4-.2a.6.6,0,0,1,.4-.1,1.689,1.689,0,0,1,.5.2q.3.15.3.3v.3a4.331,4.331,0,0,0-.1.5,5.307,5.307,0,0,0-.3,1.1c-.1.5-.2,1.1-.3,1.9q-.15,1.05-.3,2.4a24.367,24.367,0,0,0-.1,2.7c0,.6.1.8.4.8.1,0,.3-.1.5-.4s.4-.6.7-1a15.934,15.934,0,0,0,1.5-2.9,30.055,30.055,0,0,0,1.1-3.2c.2-.6.4-1,.5-1.4a2.768,2.768,0,0,1,.5-.8,1.756,1.756,0,0,1,.5-.4,1.7,1.7,0,0,1,.7-.1c.8,0,1.2.1,1.2.4l-.1.2a19.524,19.524,0,0,0-.2,2.3,12.133,12.133,0,0,0-.1,1.8V14a5.734,5.734,0,0,0,.6,3.2c-.1.1-.2.1-.3.2h-.3a.908.908,0,0,1-.7-.3,2.01,2.01,0,0,1-.4-.8,3.6,3.6,0,0,1-.2-1.1c0-.4-.1-.8-.1-1.2a9.735,9.735,0,0,1,.1-1.6c0-.6.1-1.2.1-1.8a8.635,8.635,0,0,0,.1-1.5,5.384,5.384,0,0,1,.1-.8c0-.2-.1-.2-.2-.2a45.238,45.238,0,0,1-2.2,5.1q-1.05,1.95-1.5,2.7a3.528,3.528,0,0,1-.9,1.1,1.4,1.4,0,0,1-.9.3,1.656,1.656,0,0,1-1.2-.5A2.311,2.311,0,0,1,141.9,15.1Z"/><path class="b" d="M159.2,14.6c0,.7-.5,1.4-1.5,2a5.211,5.211,0,0,1-2.5.8q-3.3,0-3.3-4.2a12.054,12.054,0,0,1,.7-4c.6-1.9,1.4-2.8,2.3-2.8a4.075,4.075,0,0,1,2.6,1.2,3.411,3.411,0,0,1,1.4,2.4,3.731,3.731,0,0,1-1.2,2.7,3.84,3.84,0,0,1-2.8,1.1,3.933,3.933,0,0,1-.6-.2,1.078,1.078,0,0,0-.7-.2c-.2,0-.3.1-.3.2,0,1.9.6,2.9,1.9,2.9a3.226,3.226,0,0,0,1.8-.6,4.407,4.407,0,0,0,1.1-1.2q.45-.6.6-.6C159,13.9,159.2,14.1,159.2,14.6ZM157.5,10a3.022,3.022,0,0,0-.5-1.6,1.561,1.561,0,0,0-1.3-.8,1.769,1.769,0,0,0-1.6,1.2,5.45,5.45,0,0,0-.5,2.2,1.707,1.707,0,0,0,1.7,1.7,2.091,2.091,0,0,0,1.7-.9A3.453,3.453,0,0,0,157.5,10Z"/></g><g transform="translate(20 -14)"><path class="c" d="M19.191,66.207C-16.8,21.729,11.532.433,11.532.433S8.5,7.171,9.99,12.1" transform="matrix(-0.799, -0.602, 0.602, -0.799, 5.522, 271.316)"/><path class="c" d="M10.032.376S3.335,4.055.171,4.648" transform="matrix(-0.799, -0.602, 0.602, -0.799, 4.593, 270.43)"/></g></g></g></svg>