<svg xmlns="http://www.w3.org/2000/svg" xmlns:xlink="http://www.w3.org/1999/xlink" viewBox="1391 2106 200 100"><defs><style>.a{clip-path:url(#b);}.b{fill:#eae440;}.c{fill:#000002;}.d{fill:#fff;}</style><clipPath id="b"><rect x="1391" y="2106" width="200" height="100"/></clipPath></defs><g id="a" class="a"><rect class="d" x="1391" y="2106" width="200" height="100"/><rect class="b" width="200" height="100" transform="translate(1391 2106)"/><path class="c" d="M92.862,12.546C91.079,15.58,76.63,15.58,74.354,15.77c-36.295,0-8.8-.569,8.988,8.8a143.743,143.743,0,0,0,24.083,9.785c30.947,9.14,51.844,5.5,55.257,4.779.152-.038-32.237,4.741-64.246-7.168C80.991,25.478,63.584,16.831,44.886,16.831c-.3,0-1.441,1.972-3.337,5.954-.91,2.617-1.555,3.679.076,3.906,4.1.531-9.026,10.24,1.631-9.747-.986,0-9.026.341-9.026.19,0-.569,5.8-.3,8.8-1.138,2.2-.607,13.236-28.71,3.148-1.441,11.984,0,26.51,2.162,38.153.076,6.409-1.176,7.737-4.248,5.954-5.992a7.209,7.209,0,0,0-1.858-1.252C83.8,5.037,74.165,3.6,69.083,3.1c-4.854-.455-9.861-1.327-14.943-1.631C52.054,1.32,49.817.9,47.617.751,32.75-.387,17.542.182,4.344,7.312-.927,10.043,21.9,15.466,25.317,14.48c-7.168,3.565-53.778-7.471.872-13.843,8.306-.986,73.12.872,66.673,11.909m18.925,3.868c6.713.3,9.633,0,2.958,4.475l-2.124,1.1c0,2.389,9.709,1.669,10.809,1.555,0,0-.683.341-.948.493-.379.228.645.076.645.19v.228c0,.152-.3.265-.834.265l.228.076h1.062c.3,0-11.036,1.441-11.036-1.138-14.374,3.679-19.114,2.806-19.418.493-.417-2.541,5.082-6.827,18.659-7.737M107.5,23.62c3.11-.721,14.26-5.044,2.162-5.537-11.719-.569-25.334,10.771-2.162,5.537m38.532-9.861c.19-.3,1.82-1.669,2.086-.569.076.3.038,1.782-.493,1.972-.3.19-1.745-1.138-1.593-1.4m-5.84,5.461c-9.368,6.068.569,5.2,4.741,5.044,3.906-.114,11.871.986-5.234.948-1.934,0-5.878-.038-4.513-3.072-7.358,2.01-12.44,3.034-15.284,3.034-1.9-1.024,16.08-4.21,18.659-5.878,5.8-3.793,10.126-4.817,4.93-1.252-.683.417-2.048.341-3.3,1.176" transform="translate(1410.028 2130.657)"/><path class="c" d="M36.353,107.162a1.516,1.516,0,0,1-.461,1.075,3.939,3.939,0,0,1-2.611.691H30.9v-6.3h2.151a5.467,5.467,0,0,1,1.767.23,1.378,1.378,0,0,1,.691,2.3,2.68,2.68,0,0,1-.691.461,1.686,1.686,0,0,1,1.152.614,1.034,1.034,0,0,1,.384.922m-1.306-2.919a.771.771,0,0,0-.461-.768,3.566,3.566,0,0,0-1.536-.307H31.745v2.151h1.306a5.514,5.514,0,0,0,1.306-.154,1.178,1.178,0,0,0,.691-.922m.461,2.919a1.059,1.059,0,0,0-.768-1.075,3.872,3.872,0,0,0-1.459-.23H31.745v2.458h1.536a7.07,7.07,0,0,0,1.459-.154,1.138,1.138,0,0,0,.768-1m12.6,1.767H43.343v-6.3H48.1v.538H44.188v2.3h3.764v.538H44.188v2.3H48.1Zm15.054,0h-.922l-1.229-2.151H56.937l-1.229,2.151h-.922l3.764-6.3H59.4Zm-2.535-2.688-1.69-2.919-1.69,2.919Zm15.208.23a2.438,2.438,0,0,1-.845,2,4.071,4.071,0,0,1-4.3,0,2.438,2.438,0,0,1-.845-2v-3.84h.845v3.84a2.565,2.565,0,0,0,.23,1.152,1.956,1.956,0,0,0,1.843.845,2.164,2.164,0,0,0,1.613-.538,1.877,1.877,0,0,0,.538-1.536v-3.84h.845v3.917Zm11.6-3.3h-2v5.76h-.845v-5.76h-2v-.538H87.43Zm12.75-.614-3,4.224v2.151h-.845v-2.151l-3-4.224h.922l2.458,3.533,2.458-3.533Zm16.9,4.608a1.6,1.6,0,0,1-.614,1.229,3.1,3.1,0,0,1-2,.614,3.143,3.143,0,0,1-1.92-.538,1.541,1.541,0,0,1-.768-1.383h.845a1,1,0,0,0,.538.922,2.412,2.412,0,0,0,2.611,0,1.1,1.1,0,0,0,.461-.922,1.061,1.061,0,0,0-.461-.845,1.447,1.447,0,0,0-.691-.307c-.614-.154-1.306-.307-1.92-.461-.768-.307-1.075-.691-1.075-1.306a1.484,1.484,0,0,1,.538-1.152,2.874,2.874,0,0,1,1.92-.614,2.438,2.438,0,0,1,1.767.538,1.458,1.458,0,0,1,.614,1.152h-.845a.749.749,0,0,0-.307-.691,1.671,1.671,0,0,0-1.306-.384,1.717,1.717,0,0,0-1.152.307,1.1,1.1,0,0,0-.384.845.738.738,0,0,0,.461.691,5.485,5.485,0,0,0,1.306.384,10.934,10.934,0,0,1,1.613.461,1.856,1.856,0,0,1,.768,1.459m14.593,1.767h-.922l-1.229-2.151h-4.071l-1.229,2.151H123.3l3.764-6.3h1Zm-2.535-2.688-1.69-2.919-1.69,2.919Zm13.748,2.688h-4.455v-6.3h.845v5.761h3.61Zm14.593-3.226a2.93,2.93,0,0,1-1.306,2.381,5.591,5.591,0,0,1-3.3.922,5.758,5.758,0,0,1-3.3-.922,2.625,2.625,0,0,1-1.306-2.3,2.929,2.929,0,0,1,1.306-2.381,5.591,5.591,0,0,1,3.3-.922,5.758,5.758,0,0,1,3.3.922,2.625,2.625,0,0,1,1.306,2.3m-.845,0a2.386,2.386,0,0,0-1.075-1.92,4.833,4.833,0,0,0-2.688-.768,4.439,4.439,0,0,0-2.688.768,2.385,2.385,0,0,0-1.075,1.92,2.283,2.283,0,0,0,1.075,1.92,4.289,4.289,0,0,0,2.688.768,4.439,4.439,0,0,0,2.688-.768,2.284,2.284,0,0,0,1.075-1.92m14.977,3.226h-.845l-5.223-5.53v5.53H164.7v-6.3h1.152l4.916,5.223V102.63h.845v6.3Z" transform="translate(1390.1 2079.275)"/></g></svg>