<svg xmlns="http://www.w3.org/2000/svg" xmlns:xlink="http://www.w3.org/1999/xlink" viewBox="1644 2136 110.06 27.16"><defs><style>.a{clip-path:url(#b);}.b{fill:#fff;}</style><clipPath id="b"><rect x="1644" y="2136" width="110.06" height="27.16"/></clipPath></defs><g id="a" class="a"><path class="b" d="M62.8,8.581c-1.206,2.052-10.979,2.052-12.518,2.18-24.549,0-5.951-.385,6.08,5.951a97.225,97.225,0,0,0,16.289,6.618c20.932,6.182,35.066,3.72,37.375,3.232.1-.026-21.8,3.207-43.455-4.848C54.772,17.328,43,11.479,30.351,11.479c-.205,0-.975,1.334-2.257,4.027-.616,1.77-1.052,2.488.051,2.642,2.77.359-6.105,6.926,1.1-6.593-.667,0-6.105.231-6.105.128,0-.385,3.925-.205,5.951-.77,1.488-.41,8.953-19.419,2.129-.975,8.106,0,17.931,1.462,25.806.051,4.335-.8,5.233-2.873,4.027-4.053A4.876,4.876,0,0,0,59.8,5.092c-3.13-1.59-9.645-2.565-13.083-2.9-3.283-.308-6.67-.9-10.107-1.1C35.2.988,33.686.706,32.2.6,22.143-.167,11.856.218,2.929,5.041-.636,6.888,14.806,10.556,17.115,9.889,12.267,12.3-19.26,4.836,17.7.526c5.618-.667,49.457.59,45.1,8.055M75.6,11.2c4.54.205,6.516,0,2,3.027l-1.437.744c0,1.616,6.567,1.129,7.311,1.052,0,0-.462.231-.641.333-.257.154.436.051.436.128v.154c0,.1-.205.18-.564.18l.154.051h.718c.205,0-7.465.975-7.465-.77-9.722,2.488-12.929,1.9-13.134.333C62.7,14.712,66.418,11.813,75.6,11.2m-2.9,4.874c2.1-.487,9.645-3.412,1.462-3.745-7.927-.385-17.136,7.285-1.462,3.745M98.766,9.4c.128-.205,1.231-1.129,1.411-.385.051.205.026,1.206-.333,1.334-.205.128-1.18-.77-1.077-.949M94.815,13.1c-6.336,4.1.385,3.514,3.207,3.412,2.642-.077,8.029.667-3.54.641-1.308,0-3.976-.026-3.053-2.078-4.977,1.36-8.414,2.052-10.338,2.052-1.283-.693,10.877-2.847,12.621-3.976,3.925-2.565,6.849-3.258,3.335-.847-.462.282-1.385.231-2.232.8" transform="translate(1644.028 2135.707)"/></g></svg>